<?xml version="1.0" encoding="UTF-8" standalone="no"?>
<svg
   width="25.595577mm"
   height="33.072914mm"
   viewBox="0 0 25.595578 33.072913"
   version="1.1"
   id="svg1895"
   xmlns="http://www.w3.org/2000/svg"
   xmlns:svg="http://www.w3.org/2000/svg"
   xmlns:rdf="http://www.w3.org/1999/02/22-rdf-syntax-ns#"
   xmlns:cc="http://creativecommons.org/ns#"
   xmlns:dc="http://purl.org/dc/elements/1.1/">
  <defs
     id="defs1889" />
  <metadata
     id="metadata1892">
    <rdf:RDF>
      <cc:Work
         rdf:about="">
        <dc:format>image/svg+xml</dc:format>
        <dc:type
           rdf:resource="http://purl.org/dc/dcmitype/StillImage" />
        <dc:creator>
          <cc:Agent>
            <dc:title>Charles Sharpe</dc:title>
          </cc:Agent>
        </dc:creator>
        <dc:rights>
          <cc:Agent>
            <dc:title>Charles Sharpe</dc:title>
          </cc:Agent>
        </dc:rights>
        <dc:publisher>
          <cc:Agent>
            <dc:title>Charles Sharpe</dc:title>
          </cc:Agent>
        </dc:publisher>
        <dc:identifier>Charles Sharpe</dc:identifier>
        <dc:source>https://www.sharpetronics.com</dc:source>
        <dc:description />
      </cc:Work>
    </rdf:RDF>
  </metadata>
  <g
     id="layer2"
     style="display:inline"
     transform="translate(-0.03665499,-0.00965199)">
    <g
       id="g3457"
       transform="matrix(1.953125,0,0,1.953125,-0.03493679,-0.00919956)">
      <path
         style="fill:none;stroke:#5b5b5b;stroke-width:0.347636;stroke-linecap:round;stroke-linejoin:miter;stroke-miterlimit:4;stroke-dasharray:none;stroke-opacity:1"
         d="M 3.19151,7.78638 C 4.81965,8.7263867 6.44779,9.6663933 8.07593,10.6064"
         id="path827-6-8" />
      <path
         style="fill:none;stroke:#5b5b5b;stroke-width:0.48669;stroke-linecap:round;stroke-linejoin:miter;stroke-miterlimit:4;stroke-dasharray:none;stroke-opacity:1"
         d="m 0.53368,7.79405 c 1.4386633,0.83857 2.8773267,1.67714 4.31599,2.51571"
         id="path891-2-9" />
      <path
         style="fill:none;stroke:#5b5b5b;stroke-width:0.347636;stroke-linecap:round;stroke-linejoin:miter;stroke-miterlimit:4;stroke-dasharray:none;stroke-opacity:1"
         d="M 3.19151,7.78638 C 4.81965,6.8463733 6.44779,5.9063667 8.07593,4.96636"
         id="path827-6-0-7" />
      <path
         style="fill:none;stroke:#5b5b5b;stroke-width:0.48669;stroke-linecap:butt;stroke-linejoin:miter;stroke-miterlimit:4;stroke-dasharray:none;stroke-opacity:1"
         d="M 0.28,0.50219 C 2.8786433,1.9902467 5.4772867,3.4783033 8.07593,4.96636"
         id="path815-5-9-3" />
      <path
         style="fill:none;stroke:#5b5b5b;stroke-width:0.48669;stroke-linecap:round;stroke-linejoin:miter;stroke-miterlimit:4;stroke-dasharray:none;stroke-opacity:1"
         d="M 0.53368,7.79227 C 1.9723433,6.9491833 3.4110067,6.1060967 4.84967,5.26301"
         id="path891-2-6-61" />
      <path
         style="fill:none;stroke:#5b5b5b;stroke-width:0.48669;stroke-linecap:round;stroke-linejoin:miter;stroke-miterlimit:4;stroke-dasharray:none;stroke-opacity:1"
         d="M 4.84967,5.26301 C 3.3264467,3.67607 1.8032233,2.08913 0.28,0.50219"
         id="path869-6-2" />
      <path
         style="fill:none;stroke:#5b5b5b;stroke-width:0.347636;stroke-linecap:round;stroke-linejoin:miter;stroke-miterlimit:4;stroke-dasharray:none;stroke-opacity:1"
         d="M 12.96036,7.78638 C 11.332217,8.7263867 9.7040733,9.6663933 8.07593,10.6064"
         id="path827-6-1-9" />
      <path
         style="fill:none;stroke:#5b5b5b;stroke-width:0.48669;stroke-linecap:round;stroke-linejoin:miter;stroke-miterlimit:4;stroke-dasharray:none;stroke-opacity:1"
         d="M 12.821136,7.7314769 C 11.239401,6.8097713 9.6576653,5.8880656 8.07593,4.96636"
         id="path827-6-0-8-3" />
      <path
         style="fill:none;stroke:#5b5b5b;stroke-width:0.48669;stroke-linecap:butt;stroke-linejoin:miter;stroke-miterlimit:4;stroke-dasharray:none;stroke-opacity:1"
         d="m 8.07593,10.6064 c 0,2.03108 0,4.06216 0,6.09324"
         id="path1010-1" />
      <path
         style="fill:none;stroke:#5b5b5b;stroke-width:0.48669;stroke-linecap:round;stroke-linejoin:miter;stroke-miterlimit:4;stroke-dasharray:none;stroke-opacity:1"
         d="M 12.898245,7.7592205 C 12.281463,8.3106377 11.705046,8.9082056 11.186951,9.5535777 10.76419,10.080196 10.381561,10.639054 10.044296,11.224163 9.7265309,11.775443 9.4501476,12.350154 9.2104131,12.939457 8.953848,13.570132 8.7400063,14.217453 8.5517134,14.871539 8.3774987,15.476721 8.2249882,16.087863 8.07593,16.69964"
         id="path1032-94" />
      <path
         style="fill:none;stroke:#5b5b5b;stroke-width:0.48669;stroke-linecap:round;stroke-linejoin:miter;stroke-miterlimit:4;stroke-dasharray:none;stroke-opacity:1"
         d="m 6.28757,11.63257 c 0.2540823,0.466475 0.4801409,0.94802 0.6810656,1.439682 0.2118047,0.518285 0.3953003,1.047823 0.5590462,1.583138 0.1904569,0.622638 0.3540236,1.253105 0.5093668,1.885298 0.013016,0.05297 0.025976,0.105956 0.038891,0.158952"
         id="path1032-5-7" />
      <path
         style="fill:none;stroke:#5b5b5b;stroke-width:0.48669;stroke-linecap:butt;stroke-linejoin:miter;stroke-miterlimit:4;stroke-dasharray:none;stroke-opacity:1"
         d="M 0.28,15.07058 C 2.8786433,13.58252 5.4772867,12.09446 8.07593,10.6064"
         id="path815-5-9-6-8" />
      <path
         style="fill:none;stroke:#5b5b5b;stroke-width:0.48669;stroke-linecap:round;stroke-linejoin:miter;stroke-miterlimit:4;stroke-dasharray:none;stroke-opacity:1"
         d="M 4.84967,10.30975 C 3.3264467,11.896693 1.8032233,13.483637 0.28,15.07058"
         id="path869-6-5-4" />
      <path
         style="fill:none;stroke:#5b5b5b;stroke-width:0.347636;stroke-linecap:butt;stroke-linejoin:miter;stroke-miterlimit:4;stroke-dasharray:none;stroke-opacity:1"
         d="m 8.07593,4.96636 c 0,-1.5942967 0,-3.1885933 0,-4.78289"
         id="path1270-50" />
      <path
         style="fill:none;stroke:#5b5b5b;stroke-width:0.347636;stroke-linecap:butt;stroke-linejoin:miter;stroke-miterlimit:4;stroke-dasharray:none;stroke-opacity:1"
         d="m 12.96036,7.78638 c 0,-1.5942967 0,-3.1885933 0,-4.78289"
         id="path1270-5-3" />
      <path
         style="fill:none;stroke:#5b5b5b;stroke-width:0.347636;stroke-linecap:round;stroke-linejoin:miter;stroke-miterlimit:4;stroke-dasharray:none;stroke-opacity:1"
         d="M 12.96036,3.00349 C 11.332217,2.0634833 9.7040733,1.1234767 8.07593,0.18347"
         id="path827-6-0-8-5-6" />
      <path
         style="fill:none;stroke:#5b5b5b;stroke-width:0.208582;stroke-linecap:round;stroke-linejoin:miter;stroke-miterlimit:4;stroke-dasharray:none;stroke-opacity:1"
         d="M 12.55143,7.10269 C 11.184643,6.3157333 9.8178567,5.5287767 8.45107,4.74182"
         id="path827-6-0-8-7-1" />
      <path
         style="fill:none;stroke:#5b5b5b;stroke-width:0.202858;stroke-linecap:round;stroke-linejoin:miter;stroke-miterlimit:4;stroke-dasharray:none;stroke-opacity:1"
         d="m 12.56532,7.10269 c 0,-1.2858767 0,-2.5717533 0,-3.85763"
         id="path1270-5-6-6" />
      <path
         style="fill:none;stroke:#5b5b5b;stroke-width:0.208582;stroke-linecap:round;stroke-linejoin:miter;stroke-miterlimit:4;stroke-dasharray:none;stroke-opacity:1;paint-order:normal"
         d="M 12.55143,3.23808 C 11.184643,2.4511267 9.8178567,1.6641733 8.45107,0.87722"
         id="path827-6-0-8-5-8-3" />
      <path
         style="fill:none;stroke:#5b5b5b;stroke-width:0.208582;stroke-linecap:round;stroke-linejoin:miter;stroke-miterlimit:4;stroke-dasharray:none;stroke-opacity:1"
         d="M 5.14333,7.04884 C 6.5443533,7.8577233 7.9453767,8.6666067 9.3464,9.47549"
         id="path827-6-4-2" />
      <path
         style="fill:none;stroke:#5b5b5b;stroke-width:0.208582;stroke-linecap:round;stroke-linejoin:miter;stroke-miterlimit:4;stroke-dasharray:none;stroke-opacity:1"
         d="M 5.14601,7.04617 C 6.0780633,6.50805 7.0101167,5.96993 7.94217,5.43181"
         id="path827-6-0-9-0" />
      <path
         style="fill:none;stroke:#5b5b5b;stroke-width:0.208582;stroke-linecap:round;stroke-linejoin:miter;stroke-miterlimit:4;stroke-dasharray:none;stroke-opacity:1"
         d="M 12.14256,7.86113 C 10.741537,7.0522467 9.3405133,6.2433633 7.93949,5.43448"
         id="path827-6-0-8-0-6" />
      <path
         style="fill:none;stroke:#5b5b5b;stroke-width:0.208582;stroke-linecap:round;stroke-linejoin:miter;stroke-miterlimit:4;stroke-dasharray:none;stroke-opacity:1"
         d="M 9.3464,9.47549 C 10.278453,8.93737 11.210507,8.39925 12.14256,7.86113"
         id="path827-6-0-9-8-1" />
      <path
         style="fill:none;stroke:#5b5b5b;stroke-width:0.139054;stroke-linecap:round;stroke-linejoin:miter;stroke-miterlimit:4;stroke-dasharray:none;stroke-opacity:1"
         d="M 5.23025,8.66827 C 5.6206767,8.4428567 6.0111033,8.2174433 6.40153,7.99203"
         id="path827-6-0-9-2-5" />
      <path
         style="fill:none;stroke:#5b5b5b;stroke-width:0.139054;stroke-linecap:round;stroke-linejoin:miter;stroke-miterlimit:4;stroke-dasharray:none;stroke-opacity:1"
         d="M 6.40153,7.99203 C 6.79196,8.2174433 7.18239,8.4428567 7.57282,8.66827"
         id="path827-6-0-9-2-9-5" />
      <path
         style="fill:none;stroke:#5b5b5b;stroke-width:0.139054;stroke-linecap:round;stroke-linejoin:miter;stroke-miterlimit:4;stroke-dasharray:none;stroke-opacity:1"
         d="M 5.23025,8.66827 C 5.6206767,8.8936833 6.0111033,9.1190967 6.40153,9.34451"
         id="path827-6-0-9-2-4-4" />
      <path
         style="fill:none;stroke:#5b5b5b;stroke-width:0.139054;stroke-linecap:round;stroke-linejoin:miter;stroke-miterlimit:4;stroke-dasharray:none;stroke-opacity:1"
         d="M 6.40153,9.34451 C 6.79196,9.1190967 7.18239,8.8936833 7.57282,8.66827"
         id="path827-6-0-9-2-9-8-7" />
      <path
         style="fill:none;stroke:#5b5b5b;stroke-width:0.202859;stroke-linecap:round;stroke-linejoin:miter;stroke-miterlimit:4;stroke-dasharray:none;stroke-opacity:1"
         d="m 8.43717,4.73485 c 0,-1.2858767 0,-2.5717533 0,-3.85763"
         id="path1270-5-6-6-3" />
      <path
         style="fill:none;stroke:#5b5b5b;stroke-width:0.0513789;stroke-linecap:round;stroke-linejoin:miter;stroke-miterlimit:4;stroke-dasharray:none;stroke-opacity:1;paint-order:normal"
         d="M 11.95107,3.7079 C 10.941047,3.1263567 9.9310233,2.5448133 8.921,1.96327"
         id="path827-6-0-8-5-8-3-6" />
      <path
         style="fill:none;stroke:#5b5b5b;stroke-width:0.053559;stroke-linecap:round;stroke-linejoin:miter;stroke-miterlimit:4;stroke-dasharray:none;stroke-opacity:1;paint-order:normal"
         d="M 12.10629,4.12891 C 11.053413,3.5226967 10.000537,2.9164833 8.94766,2.31027"
         id="path827-6-0-8-5-8-3-6-7" />
      <path
         style="fill:none;stroke:#5b5b5b;stroke-width:0.0349552;stroke-linecap:round;stroke-linejoin:miter;stroke-miterlimit:4;stroke-dasharray:none;stroke-opacity:1;paint-order:normal"
         d="M 10.98428,4.46545 C 10.297117,4.0698033 9.6099533,3.6741567 8.92279,3.27851"
         id="path827-6-0-8-5-8-3-6-5" />
      <path
         style="fill:none;stroke:#5b5b5b;stroke-width:0.0398392;stroke-linecap:round;stroke-linejoin:miter;stroke-miterlimit:4;stroke-dasharray:none;stroke-opacity:1;paint-order:normal"
         d="M 11.27159,4.30806 C 10.49667,3.85233 9.72175,3.3966 8.94683,2.94087"
         id="path827-6-0-8-5-8-3-6-2" />
      <path
         style="fill:none;stroke:#5b5b5b;stroke-width:0.0349552;stroke-linecap:round;stroke-linejoin:miter;stroke-miterlimit:4;stroke-dasharray:none;stroke-opacity:1;paint-order:normal"
         d="M 11.01003,3.83654 C 10.32287,3.4408933 9.63571,3.0452467 8.94855,2.6496"
         id="path827-6-0-8-5-8-3-6-1" />
      <path
         style="fill:none;stroke:#5b5b5b;stroke-width:0.0269252;stroke-linecap:round;stroke-linejoin:miter;stroke-miterlimit:4;stroke-dasharray:none;stroke-opacity:1;paint-order:normal"
         d="M 10.549,4.58272 C 10.019697,4.2779633 9.4903933,3.9732067 8.96109,3.66845"
         id="path827-6-0-8-5-8-3-6-27" />
      <path
         style="fill:none;stroke:#5b5b5b;stroke-width:0.0269251;stroke-linecap:round;stroke-linejoin:miter;stroke-miterlimit:4;stroke-dasharray:none;stroke-opacity:1;paint-order:normal"
         d="M 10.56361,4.85732 C 10.034307,4.5525633 9.5050033,4.2478067 8.9757,3.94305"
         id="path827-6-0-8-5-8-3-6-27-0" />
      <path
         style="fill:none;stroke:#5b5b5b;stroke-width:0.0269251;stroke-linecap:round;stroke-linejoin:miter;stroke-miterlimit:4;stroke-dasharray:none;stroke-opacity:1;paint-order:normal"
         d="M 10.54476,5.13202 C 10.015457,4.82726 9.4861533,4.5225 8.95685,4.21774"
         id="path827-6-0-8-5-8-3-6-27-9" />
    </g>
  </g>
</svg>
