<?xml version="1.0" encoding="UTF-8" standalone="no"?>
<svg
   width="23.340437mm"
   height="32.8526mm"
   viewBox="0 0 23.340438 32.852599"
   version="1.1"
   id="svg1895"
   xmlns="http://www.w3.org/2000/svg"
   xmlns:svg="http://www.w3.org/2000/svg"
   xmlns:rdf="http://www.w3.org/1999/02/22-rdf-syntax-ns#"
   xmlns:cc="http://creativecommons.org/ns#"
   xmlns:dc="http://purl.org/dc/elements/1.1/">
  <defs
     id="defs1889" />
  <metadata
     id="metadata1892">
    <rdf:RDF>
      <cc:Work
         rdf:about="">
        <dc:format>image/svg+xml</dc:format>
        <dc:type
           rdf:resource="http://purl.org/dc/dcmitype/StillImage" />
        <dc:creator>
          <cc:Agent>
            <dc:title>Charles Sharpe</dc:title>
          </cc:Agent>
        </dc:creator>
        <dc:rights>
          <cc:Agent>
            <dc:title>Charles Sharpe</dc:title>
          </cc:Agent>
        </dc:rights>
        <dc:publisher>
          <cc:Agent>
            <dc:title>Charles Sharpe</dc:title>
          </cc:Agent>
        </dc:publisher>
        <dc:identifier>Charles Sharpe</dc:identifier>
        <dc:source>https://www.sharpetronics.com</dc:source>
        <dc:description />
      </cc:Work>
    </rdf:RDF>
  </metadata>
  <g
     id="g3457-7-3"
     transform="matrix(-1.5609103,0,0,1.5609103,22.057689,2.8939054)"
     style="display:inline;fill:none;fill-opacity:0.53218;stroke:#000000;stroke-width:2.20358;stroke-dasharray:none;stroke-opacity:0.847493">
    <path
       id="path827-6-0-8-5-8-3-6-27-9-0-6"
       style="display:inline;fill:none;fill-opacity:0.53218;stroke:#000000;stroke-width:2.20358;stroke-linecap:round;stroke-linejoin:miter;stroke-miterlimit:4;stroke-dasharray:none;stroke-opacity:0.847493;paint-order:normal"
       d="M 5.1116695,8.7277053 C 5.2425367,8.7167236 5.3734039,8.705742 5.5042711,8.6947603 m 0.8131337,0.7290729 c 0.1254667,-0.00784 0.2509334,-0.01568 0.3764001,-0.02352 M 3.9190046,7.6311125 C 5.477458,8.565363 7.0359114,9.4996135 8.5943648,10.433864 M 13.027632,2.1076418 C 11.377835,1.1551336 9.7280385,0.20262539 8.0782417,-0.74988281 M 13.029508,7.811513 c 0,-1.9061848 0,-3.8123697 0,-5.7185545 M 8.07593,4.96636 c 0,-1.9061848 0,-3.8123697 0,-5.71855448 M 4.84967,10.30975 C 3.3264467,11.896693 1.8032233,13.483637 0.28,15.07058 m 0,0 C 2.8786433,13.58252 5.4772867,12.09446 8.07593,10.6064 m -1.78836,1.02617 c 0.1908307,0.351726 0.3439584,0.722655 0.4781162,1.099221 0.1990241,0.558639 0.3589132,1.130394 0.5025773,1.705488 0.2230145,0.892737 0.4027089,1.795401 0.5935133,2.695357 0.067911,0.320312 0.1368287,0.640471 0.2141632,0.958664 M 13.027987,7.8110215 C 12.025612,8.7075003 11.158973,9.7518316 10.438558,10.886291 9.8029244,11.887243 9.2768169,12.95807 8.8764406,14.074163 8.5830727,14.891958 8.3544705,15.734293 8.2155678,16.592325 8.135321,17.088027 8.0846742,17.589037 8.07593,18.0913 m 0,-7.4849 c 0,2.494967 0,4.989933 0,7.4849 M 13.018954,7.78638 C 11.371279,6.8463733 9.7236047,5.9063667 8.07593,4.96636 m 4.949339,2.8430777 C 11.375489,8.7417585 9.7257097,9.6740792 8.07593,10.6064 M 4.84967,5.26301 C 3.3264467,3.67607 1.8032233,2.08913 0.28,0.50219 M 0.53368,7.79227 C 1.9723433,6.9491833 3.4110067,6.1060967 4.84967,5.26301 M 0.28,0.50219 C 2.8786433,1.9902467 5.4772867,3.4783033 8.07593,4.96636 M 3.19151,7.78638 C 4.81965,6.8463733 6.44779,5.9063667 8.07593,4.96636 M 0.53368001,7.79405 C 1.9723433,8.63262 3.4110067,9.47119 4.84967,10.30976 M 3.19151,7.78638 C 3.1478346,7.6952461 3.1014868,7.6033965 3.0806172,7.5041348 c -0.00964,-0.045857 -0.022588,-0.099757 0.00414,-0.1417183 0.021487,-0.033738 0.066708,-0.036423 0.102436,-0.03092 0.067703,0.010428 0.1314102,0.037896 0.1925029,0.067717 0.1433988,0.069998 0.2790546,0.1546777 0.412341,0.2420509 0.2941768,0.1928415 0.5797028,0.3984688 0.8642377,0.605139 C 5.24609,8.6748151 5.8328636,9.107534 6.4304953,9.5250662 6.9685624,9.9009839 7.5145402,10.266082 8.07593,10.6064"
       class="UnoptimicedTransforms" />
  </g>
</svg>
